<svg width="362" height="119" viewBox="0 0 362 119" fill="none" xmlns="http://www.w3.org/2000/svg">
<path d="M264.425 108.46L283.899 41.4701H355.896C356.913 41.4701 357.841 41.9805 358.678 43.0013C359.516 43.9583 360.205 45.1386 360.743 46.5422C361.282 47.9458 361.641 49.4132 361.82 50.9444C362.06 52.4756 362.06 53.7835 361.82 54.8681C361.701 55.4423 361.461 56.2398 361.102 57.2606C360.803 58.2176 360.444 59.3341 360.025 60.6101C359.606 61.8861 359.127 63.2578 358.589 64.7252C358.11 66.1926 357.631 67.66 357.152 69.1274C356.015 72.5726 354.729 76.273 353.292 80.2286C353.292 80.739 352.993 81.377 352.395 82.1426C351.796 82.8444 351.078 83.5462 350.24 84.248C349.462 84.886 348.624 85.4602 347.726 85.9706C346.829 86.481 346.081 86.7362 345.482 86.7362C344.285 86.7362 342.49 86.7362 340.096 86.7362C337.762 86.7362 335.188 86.7362 332.376 86.7362C329.563 86.6724 326.66 86.6405 323.668 86.6405C320.735 86.6405 318.072 86.6405 315.678 86.6405C313.284 86.6405 311.339 86.6405 309.843 86.6405C308.407 86.6405 307.748 86.6405 307.868 86.6405L312.536 72.4769H329.503C330.281 72.4769 330.909 72.2217 331.388 71.7113C331.867 71.1371 332.286 70.4672 332.645 69.7016C333.004 68.8722 333.333 67.9471 333.632 66.9263C333.932 65.9055 334.261 64.8528 334.62 63.7682C335.278 61.7904 335.218 60.0997 334.44 58.6961C333.662 57.2925 332.555 56.4312 331.119 56.1122C330.76 56.0484 329.982 56.0165 328.785 56.0165C327.588 55.9527 326.181 55.9208 324.565 55.9208C323.009 55.9208 321.334 55.9208 319.538 55.9208C317.743 55.9208 316.067 55.9208 314.511 55.9208C313.015 55.9208 311.758 55.9208 310.741 55.9208C309.783 55.9208 309.274 55.9208 309.215 55.9208L292.613 108.46H264.425Z" fill="white"/>
<path d="M165.272 108.46L220.66 41.4701H243.283C244.36 41.4701 245.437 41.8529 246.514 42.6185C246.907 42.8742 247.271 43.1425 247.608 43.4236C248.196 43.914 248.699 44.4432 249.118 45.011C249.716 45.8404 250.255 46.7017 250.734 47.5949C251.272 48.4881 251.721 49.3813 252.08 50.2745C252.14 50.5297 252.379 51.5505 252.798 53.3369C253.217 55.1233 253.726 57.3882 254.324 60.1316C254.923 62.875 255.581 66.0012 256.299 69.5102C257.018 72.9554 257.766 76.4644 258.544 80.0372C260.339 88.4588 262.344 97.9331 264.558 108.46H233.767L230.535 96.1148L204.861 95.732C207.255 92.7334 209.439 90.0219 211.414 87.5975C212.192 86.5767 212.97 85.5878 213.748 84.6308C214.586 83.6738 215.304 82.8125 215.902 82.0469C216.561 81.2813 217.07 80.6752 217.429 80.2286C217.848 79.7182 218.057 79.463 218.057 79.463H226.944L224.797 70.1801L223.713 65.4908L188.163 108.46H165.272Z" fill="white"/>
<path d="M250.734 47.5949C250.255 46.7017 249.716 45.8404 249.118 45.011C248.699 44.4432 247.199 43.0239 246.611 42.5334C239.059 51.6756 224.921 70.716 224.797 70.1801L226.944 79.463H218.057L217.429 80.2286C217.07 80.6752 216.561 81.2813 215.903 82.0469C215.304 82.8125 214.586 83.6738 213.748 84.6308C212.97 85.5878 212.192 86.5767 211.414 87.5975C209.439 90.0219 207.255 92.7334 204.861 95.732L230.535 96.1148L233.767 108.46H264.558C262.344 97.9331 260.339 88.4588 258.544 80.0372C257.766 76.4644 257.018 72.9554 256.3 69.5102C255.581 66.0012 254.923 62.875 254.325 60.1316C253.726 57.3882 253.217 55.1233 252.798 53.3369L252.08 50.2745C251.721 49.3813 251.272 48.4881 250.734 47.5949Z" fill="white"/>
<path d="M101.042 41.5658L180.489 41.4701L175.731 58.2176H125.011L116.213 89.4158C116.093 89.9262 116.183 90.5642 116.482 91.3298C116.842 92.0316 117.26 92.3825 117.739 92.3825C118.039 92.3825 118.996 92.3825 120.612 92.3825C122.228 92.3825 124.233 92.3825 126.627 92.3825C129.08 92.3187 131.803 92.2868 134.796 92.2868C137.788 92.223 140.81 92.1911 143.863 92.1911C146.915 92.1911 149.877 92.1911 152.75 92.1911C155.623 92.1273 158.136 92.0954 160.291 92.0954C162.505 92.0954 164.241 92.1273 165.497 92.1911C166.754 92.1911 167.293 92.223 167.113 92.2868L162.625 108.46H96.284C95.5658 108.46 94.7878 108.332 93.9499 108.077C93.1121 107.822 92.2742 107.471 91.4364 107.025C90.6583 106.578 89.9402 106.068 89.2819 105.493C88.6235 104.919 88.0849 104.313 87.666 103.675C86.8281 102.272 86.08 100.708 85.4217 98.9858C84.7634 97.2632 84.6736 95.6044 85.1524 94.0094L101.042 41.5658ZM129.32 66.4478H169.627L164.42 81.377H124.293L129.32 66.4478Z" fill="white"/>
<path d="M18.6922 118.562L11.71 114.308C24.4833 78.8072 40.1776 59.7649 70.6251 42.5334H85.023L79.537 61.6734H53.6032L40.1375 109.523H18.6922V118.562Z" fill="white"/>
<path d="M61.5828 42.5335H6.72271L0.737976 61.6735H26.6718L21.1858 81.3451C29.1655 70.7118 53.8026 48.0628 68.565 42.5335C72.5548 41.039 78.0408 38.6727 81.0332 37.2168C76.2454 38.9181 65.5726 41.4701 61.5828 42.5335Z" fill="white"/>
<path d="M61.3051 2.68342C52.0439 20.4013 59.4301 29.387 73.8374 36.9092L68.871 23.4723L77.4525 36.1557C81.6429 14.2321 71.6424 4.47579 61.3051 2.68342Z" fill="white"/>
<path d="M107.157 33.5212C96.5817 25.6446 85.4604 31.3305 81.8721 36.9341L91.633 36.0675L81.1016 38.7778C89.8175 44.3911 106.135 37.1028 107.157 33.5212Z" fill="white"/>
</svg>
